<?xml version="1.0" ?><svg data-name="Layer 1" id="Layer_1" viewBox="0 0 508.33 508.36" xmlns="http://www.w3.org/2000/svg"><defs><style>.cls-1{fill:#fc9b00;fill-rule:evenodd;}.cls-2{fill:#fff;}</style></defs><title/><path class="cls-1" d="M485,29.72c11.45,15.13,16.61,40.21,19.15,70.7,3.36,45.5,4.71,100.1,6,156.52-1.67,57.47-2.35,115.43-6,156.52-2.88,31.54-9,52.66-19.22,65.47-13,12.79-37.94,23.59-73.5,26.15-43.25,3.69-96.61,3.65-155.48,5.1-65.44-1.12-109.82-.64-156.38-5.08-36.32-2.52-60.08-13.19-74.7-26.07-10.83-14.54-14-30-17-66.24-3.75-41.85-4.58-98.56-6-155.54C4,200.57,4.13,143.44,7.9,100.74,10.43,67.05,14.42,44.4,24.65,30,39,17.77,63.48,11.69,100,8.69c50-5.85,102.06-7,155.88-6.87,55.39.09,108.56,1.67,156,6.34,32,2.56,58.48,8.07,73.07,21.56Z" transform="translate(-1.83 -1.82)"/><path class="cls-2" d="M356.19,341.43a10.37,10.37,0,0,0-4.45,1c-1.62.65-3.25,1.39-4.79,2l-2.28.95-3,1.18v0c-32.14,13-65.9,20.67-97.14,21.35-1.14,0-2.29,0-3.43,0-49.12,0-89.21-22.76-129.66-45.22a9.18,9.18,0,0,0-4.27-1.13,7.43,7.43,0,0,0-5,2,6.9,6.9,0,0,0-2.16,5,8,8,0,0,0,3.15,6.16c38,33,79.57,63.58,135.51,63.61,1.09,0,2.2,0,3.33,0,35.58-.8,75.85-12.82,107.08-32.45l.18-.12a108,108,0,0,0,12-8.31,9.46,9.46,0,0,0,4-7.44A8.9,8.9,0,0,0,356.19,341.43Z" transform="translate(-1.83 -1.82)"/><path class="cls-2" d="M399.53,323.23h0a14.13,14.13,0,0,0-2.09-7.48l-.13-.18-.16-.19a10.37,10.37,0,0,0-4-2.6c-4.09-1.58-10.06-2.42-17.25-2.44a78.24,78.24,0,0,0-16.58,1.74v-.38l-5.77,1.92-.1,0-3.25,1.06v.14a51.57,51.57,0,0,0-10.52,5.89,8.3,8.3,0,0,0-3.76,6.54,6.08,6.08,0,0,0,2.2,4.69,6.93,6.93,0,0,0,4.43,1.51,5.42,5.42,0,0,0,.93-.06l.28,0,.22,0c2.82-.6,6.92-1,11.72-1.68a118.54,118.54,0,0,1,12.28-.79,32.84,32.84,0,0,1,6.74.53,7.84,7.84,0,0,1,1.8.56,1.88,1.88,0,0,1,.24.13,5.8,5.8,0,0,1,.17,1.65c0,3.17-1.32,9-3.16,14.78s-4,11.51-5.44,15.33a8,8,0,0,0-.56,2.9,6.24,6.24,0,0,0,6.33,6.36h.06a9,9,0,0,0,5.48-2.08c14.63-13.15,19.7-34.13,19.91-46Z" transform="translate(-1.83 -1.82)"/><path class="cls-2" d="M265.82,182.3c-8.6.65-18.52,1.3-28.44,2.61-15.19,2-30.41,4.63-43,10.59-24.45,9.91-41,31.07-41,62.13,0,39,25.11,58.84,56.85,58.84a109.14,109.14,0,0,0,27.09-3.3c12.57-4,23.14-11.24,35.71-24.48,7.26,9.93,9.25,14.57,21.81,25.13,3.3,1.31,6.61,1.31,9.24-.65,7.94-6.62,21.83-18.53,29.09-25.12,3.31-2.65,2.65-6.62.65-9.9-7.25-9.27-14.54-17.2-14.54-35.06V183.6c0-25.12,2-48.26-16.52-65.43C287.63,104.3,263.83,99,245.32,99h-7.94c-33.7,2-69.4,16.51-77.33,58.16-1.32,5.3,2.65,7.26,5.3,7.92l37,4.63c4-.65,6-4,6.62-7.25,3.3-14.55,15.19-21.83,28.41-23.15H240c7.93,0,16.52,3.31,21.15,9.93,5.29,7.93,4.63,18.52,4.63,27.77v5.3Zm-7.26,78.64a32.1,32.1,0,0,1-21.17,17.2c-1.31,0-3.29.65-5.29.65C217.57,278.8,209,267.55,209,251c0-21.16,12.56-31.07,28.41-35.7,8.6-2,18.52-2.65,28.44-2.65v7.94C265.82,235.82,266.48,247.71,258.56,260.94Z" transform="translate(-1.83 -1.82)"/></svg>